<?xml version="1.0" encoding="utf-8"?>
<svg viewBox="1 1 48.564 47.301" width="48.564" height="47.301" xmlns="http://www.w3.org/2000/svg">
  <path d="M 5.696 14.315 L 12.011 14.315 L 12.011 16.952 L 6.671 16.952 L 6.495 16.952 L 5.453 16.952 L 5.874 17.75 L 5.874 39.439 L 12.011 39.439 L 12.055 39.439 L 12.654 39.439 L 12.654 40.281 L 12.654 40.281 L 17.838 40.281 L 17.838 40.835 L 12.654 40.835 L 12.654 41.522 L 12.654 41.522 L 17.838 41.522 L 17.838 41.544 L 32.859 41.544 L 32.859 41.544 L 32.859 41.544 L 38.132 41.544 L 38.132 40.857 L 32.859 40.857 L 32.859 40.303 L 38.132 40.303 L 38.132 39.462 L 38.619 39.462 L 38.664 39.462 L 44.623 39.462 L 44.623 38.996 L 44.623 38.996 L 44.623 17.816 L 44.623 17.816 L 45.045 16.974 L 39.417 16.974 L 39.24 16.974 L 38.664 16.974 L 38.664 14.337 L 45.399 14.337 L 46.817 12.742 L 4.412 12.742 L 5.696 14.315 Z M 38.642 26.213 L 38.642 26.855 L 12.033 26.855 L 12.033 26.213 L 38.642 26.213 Z M 27.408 25.016 L 28.871 15.91 L 29.58 16.021 L 28.118 25.149 L 27.408 25.016 Z M 31.906 16.841 L 32.837 16.841 L 32.925 24.862 L 31.995 24.862 L 31.906 16.841 Z M 33.989 24.862 L 35.207 17.306 L 35.651 17.372 L 34.432 24.928 L 33.989 24.862 Z M 36.426 24.816 L 36.802 18.525 L 38.221 18.613 L 37.844 24.906 L 36.426 24.816 Z M 38.177 29.403 L 38.021 36.67 L 37.623 36.67 L 37.777 29.403 L 38.177 29.403 Z M 36.005 36.714 L 34.498 36.714 L 34.476 28.339 L 35.983 28.339 L 36.005 36.714 Z M 33.059 27.254 L 32.062 36.736 L 31.552 36.692 L 32.549 27.21 L 33.059 27.254 Z M 30.643 28.073 L 29.736 36.714 L 28.627 36.604 L 29.536 27.963 L 30.643 28.073 Z M 27.83 29.38 L 27.675 36.626 L 27.121 36.604 L 27.276 29.358 L 27.83 29.38 Z M 26.035 36.67 L 25.481 36.692 L 25.238 28.871 L 25.791 28.849 L 26.035 36.67 Z M 24.152 36.67 L 23.421 36.758 L 22.49 27.874 L 23.221 27.786 L 24.152 36.67 Z M 21.759 28.871 L 21.295 36.604 L 19.566 36.492 L 20.032 28.761 L 21.759 28.871 Z M 18.037 36.626 L 17.439 36.714 L 16.265 29.358 L 16.863 29.27 L 18.037 36.626 Z M 15.822 36.758 L 14.958 36.758 L 14.914 31.375 L 15.778 31.375 L 15.822 36.758 Z M 13.451 36.758 L 12.942 36.78 L 12.786 33.257 L 13.296 33.235 L 13.451 36.758 Z M 13.562 16.065 L 14.093 16.043 L 14.293 25.082 L 13.761 25.104 L 13.562 16.065 Z M 15.999 24.906 L 16.021 14.98 L 17.506 14.98 L 17.484 24.906 L 15.999 24.906 Z M 18.525 15.068 L 19.588 14.958 L 20.629 24.794 L 19.566 24.906 L 18.525 15.068 Z M 22.092 25.016 L 21.139 15.977 L 22.136 15.866 L 23.089 24.906 L 22.092 25.016 Z M 6.495 39.152 L 6.495 17.794 L 6.671 17.794 L 6.671 39.152 L 6.495 39.152 Z M 9.286 38.996 L 9.286 17.417 L 9.751 17.417 L 9.751 38.996 L 9.286 38.996 Z M 10.372 38.996 L 10.372 17.417 L 11.347 17.417 L 11.347 38.996 L 10.372 38.996 Z M 12.033 38.885 L 12.033 38.109 L 38.642 38.109 L 38.642 38.885 L 12.033 38.885 Z M 39.218 17.816 L 39.394 17.816 L 39.394 38.996 L 39.218 38.996 L 39.218 17.816 Z M 41.942 38.996 L 41.942 17.816 L 42.408 17.816 L 42.408 38.996 L 41.942 38.996 Z M 44.004 38.996 L 43.029 38.996 L 43.029 17.816 L 44.004 17.816 L 44.004 38.996 Z M 26.213 24.906 L 24.551 24.838 L 24.906 14.249 L 26.567 14.315 L 26.213 24.906 Z" fill="#010101" style=""/>
  <path d="M 16.465 6.561 L 33.989 6.561 L 25.238 3.437 Z" fill="#010101" style=""/>
  <path d="M 48.7 8.178 L 45.333 8.178 L 25.216 1 L 5.099 8.178 L 1.864 8.178 L 1.864 9.131 L 48.7 9.131 L 48.7 8.178 Z M 12.632 7.225 L 11.435 7.225 L 10.948 7.225 L 10.948 7.225 L 10.948 7.225 L 22.092 3.238 L 25.216 2.129 L 25.216 2.728 L 25.216 2.728 L 37.755 7.203 L 37.755 7.203 L 12.632 7.225 Z" fill="#010101" style=""/>
  <path d="M 38.597 45.576 L 12.033 45.576 L 12.033 48.301 L 38.597 48.301 L 38.597 48.279 Z" fill="#010101" style=""/>
  <path d="M 13.828 42.341 L 13.828 44.734 L 36.824 44.734 L 36.802 44.734 L 36.802 42.341 Z" fill="#010101" style=""/>
  <path d="M 38.109 41.92 L 37.534 42.807 L 37.534 43.626 L 45.621 43.626 L 45.621 42.785 L 45 41.92 Z" fill="#010101" style=""/>
  <path d="M 38.597 39.816 L 39.484 39.816 L 39.484 41.522 L 38.597 41.522 Z" fill="#010101" style=""/>
  <path d="M 40.081 39.816 L 40.791 39.816 L 40.791 41.522 L 40.081 41.522 Z" fill="#010101" style=""/>
  <path d="M 41.456 39.816 L 42.076 39.816 L 42.076 41.522 L 41.456 41.522 Z" fill="#010101" style=""/>
  <path d="M 42.829 39.816 L 43.338 39.816 L 43.338 41.522 L 42.829 41.522 Z" fill="#010101" style=""/>
  <path d="M 44.18 39.816 L 44.601 39.816 L 44.601 41.522 L 44.18 41.522 Z" fill="#010101" style=""/>
  <path d="M 37.534 44.004 L 45.621 44.004 L 45.621 44.734 L 37.534 44.734 Z" fill="#010101" style=""/>
  <path d="M 39.062 14.692 L 39.949 14.692 L 39.949 16.397 L 39.062 16.397 Z" fill="#010101" style=""/>
  <path d="M 40.525 14.692 L 41.234 14.692 L 41.234 16.397 L 40.525 16.397 Z" fill="#010101" style=""/>
  <path d="M 41.898 14.692 L 42.519 14.692 L 42.519 16.397 L 41.898 16.397 Z" fill="#010101" style=""/>
  <path d="M 43.272 14.692 L 43.782 14.692 L 43.782 16.397 L 43.272 16.397 Z" fill="#010101" style=""/>
  <path d="M 44.646 14.692 L 45.067 14.692 L 45.067 16.397 L 44.646 16.397 Z" fill="#010101" style=""/>
  <path d="M 4.833 42.785 L 4.833 43.626 L 12.92 43.626 L 12.92 42.807 L 12.343 41.92 L 5.453 41.92 Z" fill="#010101" style=""/>
  <path d="M 11.435 39.816 L 11.856 39.816 L 11.856 41.522 L 11.435 41.522 Z" fill="#010101" style=""/>
  <path d="M 10.062 39.816 L 10.571 39.816 L 10.571 41.522 L 10.062 41.522 Z" fill="#010101" style=""/>
  <path d="M 8.688 39.816 L 9.309 39.816 L 9.309 41.522 L 8.688 41.522 Z" fill="#010101" style=""/>
  <path d="M 7.314 39.816 L 8.024 39.816 L 8.024 41.522 L 7.314 41.522 Z" fill="#010101" style=""/>
  <path d="M 5.852 39.816 L 6.738 39.816 L 6.738 41.522 L 5.852 41.522 Z" fill="#010101" style=""/>
  <path d="M 4.833 44.004 L 12.92 44.004 L 12.92 44.734 L 4.833 44.734 Z" fill="#010101" style=""/>
  <path d="M 11.28 14.692 L 11.701 14.692 L 11.701 16.397 L 11.28 16.397 Z" fill="#010101" style=""/>
  <path d="M 9.906 14.692 L 10.416 14.692 L 10.416 16.397 L 9.906 16.397 Z" fill="#010101" style=""/>
  <path d="M 8.533 14.692 L 9.153 14.692 L 9.153 16.397 L 8.533 16.397 Z" fill="#010101" style=""/>
  <path d="M 7.159 14.692 L 7.868 14.692 L 7.868 16.397 L 7.159 16.397 Z" fill="#010101" style=""/>
  <path d="M 5.696 14.692 L 6.583 14.692 L 6.583 16.397 L 5.696 16.397 Z" fill="#010101" style=""/>
  <path d="M 4.677 12.211 L 12.764 12.211 L 12.764 11.723 L 37.711 11.723 L 37.711 12.211 L 45.775 12.211 L 45.775 11.723 L 49.564 11.723 L 49.564 10.128 L 1 10.128 L 1 11.723 L 4.677 11.723 Z" fill="#010101" style=""/>
</svg>